<svg xmlns="http://www.w3.org/2000/svg" viewBox="0 0 192 192">
  <path d="M86 160V52c0-16 22-16 22 0v28h12c5 0 9-4 9-9V59c0-15 21-15 21 0v18c0 18-14 32-32 32h-10v51" fill="#39b878" stroke="#0b3b29" stroke-width="8" stroke-linecap="round" stroke-linejoin="round"/>
  <path d="M86 103H74c-18 0-32-14-32-32V60c0-15 21-15 21 0v9c0 5 4 9 9 9h14" fill="#39b878" stroke="#0b3b29" stroke-width="8" stroke-linecap="round" stroke-linejoin="round"/>
  <path d="M72 160h52" stroke="#6b4a2d" stroke-width="10" stroke-linecap="round"/>
  <path d="M95 56v92M56 64v22M141 64v24" stroke="#a7efc4" stroke-width="5" stroke-linecap="round"/>
</svg>
