<svg xmlns="http://www.w3.org/2000/svg" width="64" height="64" viewBox="0 0 64 64">
  <rect width="64" height="64" fill="#c99a58"/>
  <g stroke="#6d4425" stroke-width="1.3" stroke-linecap="round">
    <path d="M0 12h64M0 28h64M0 44h64M0 60h64" opacity=".72"/>
    <path d="M14 0v12M42 12v16M24 28v16M54 44v16" opacity=".7"/>
  </g>
  <g fill="#e4bf7c" opacity=".55">
    <rect x="0" y="0" width="64" height="12"/>
    <rect x="0" y="28" width="64" height="16"/>
  </g>
  <g stroke="#4d2f1b" stroke-linecap="round" opacity=".38" fill="none">
    <path d="M4 7c8-3 19-2 29 1"/>
    <path d="M34 21c7 2 17 2 26-1"/>
    <path d="M7 38c10-4 24-3 36 1"/>
    <path d="M20 55c10-3 25-3 41 0"/>
  </g>
  <g fill="#ffe0a0" opacity=".42">
    <circle cx="8" cy="19" r="1"/>
    <circle cx="35" cy="9" r="1.2"/>
    <circle cx="57" cy="35" r="1"/>
    <circle cx="13" cy="53" r="1.2"/>
  </g>
</svg>
