<svg xmlns="http://www.w3.org/2000/svg" width="64" height="64" viewBox="0 0 64 64">
  <rect width="64" height="64" fill="#2c2b62"/>
  <g stroke="#17162e" stroke-width="1" stroke-linejoin="round">
    <path d="M0 0h16v16H0zM32 0h16v16H32zM16 16h16v16H16zM48 16h16v16H48zM0 32h16v16H0zM32 32h16v16H32zM16 48h16v16H16zM48 48h16v16H48z" fill="#5f3f91"/>
    <path d="M16 0h16v16H16zM48 0h16v16H48zM0 16h16v16H0zM32 16h16v16H32zM16 32h16v16H16zM48 32h16v16H48zM0 48h16v16H0zM32 48h16v16H32z" fill="#237a83"/>
  </g>
  <g fill="#ffe36e" opacity=".68">
    <circle cx="8" cy="8" r="1.4"/>
    <circle cx="40" cy="8" r="1.4"/>
    <circle cx="24" cy="24" r="1.4"/>
    <circle cx="56" cy="24" r="1.4"/>
    <circle cx="8" cy="40" r="1.4"/>
    <circle cx="40" cy="40" r="1.4"/>
    <circle cx="24" cy="56" r="1.4"/>
    <circle cx="56" cy="56" r="1.4"/>
  </g>
  <g fill="none" stroke="#11111f" stroke-linecap="round" opacity=".32">
    <path d="M3 15c5-2 9-2 13 0"/>
    <path d="M36 4c6 1 12 0 17-2"/>
    <path d="M4 37c7 3 14 3 22 0"/>
    <path d="M43 50c7-3 13-3 19 0"/>
  </g>
</svg>
