<svg xmlns="http://www.w3.org/2000/svg" width="64" height="64" viewBox="0 0 64 64">
  <rect width="64" height="64" fill="#b9793a"/>
  <g fill="#ca8b49">
    <rect width="64" height="12"/>
    <rect y="24" width="64" height="16"/>
    <rect y="52" width="64" height="12"/>
  </g>
  <g stroke="#6a3c1e" stroke-width="1.1" stroke-linecap="round">
    <path d="M0 12h64M0 24h64M0 40h64M0 52h64"/>
    <path d="M18 0v12M42 12v12M27 24v16M54 40v12M9 52v12"/>
  </g>
  <g fill="none" stroke="#442613" stroke-linecap="round" opacity=".38">
    <path d="M3 6c9-3 18-2 28 1"/>
    <path d="M36 18c7 2 15 1 24-1"/>
    <path d="M8 34c8-3 18-3 29 0"/>
    <path d="M29 59c10-4 21-3 33 1"/>
  </g>
  <g fill="#f2bd77" opacity=".28">
    <circle cx="12" cy="18" r="1"/>
    <circle cx="50" cy="33" r="1"/>
    <circle cx="22" cy="47" r="1.2"/>
  </g>
</svg>
