<svg xmlns="http://www.w3.org/2000/svg" width="64" height="64" viewBox="0 0 64 64">
  <rect width="64" height="64" fill="#263f63"/>
  <path d="M0 0h64v64H0z" fill="#304f79"/>
  <g fill="none" stroke="#d59d45" stroke-linejoin="round" opacity=".58">
    <path d="M0 16l16-16 16 16-16 16z"/>
    <path d="M32 16L48 0l16 16-16 16z"/>
    <path d="M0 48l16-16 16 16-16 16z"/>
    <path d="M32 48l16-16 16 16-16 16z"/>
  </g>
  <g fill="#17283f" opacity=".38">
    <circle cx="16" cy="16" r="1.3"/>
    <circle cx="48" cy="16" r="1.3"/>
    <circle cx="16" cy="48" r="1.3"/>
    <circle cx="48" cy="48" r="1.3"/>
  </g>
  <g fill="none" stroke="#0f1827" stroke-linecap="round" opacity=".36">
    <path d="M4 6c8-3 17-3 26 1"/>
    <path d="M35 38c7 2 16 1 26-2"/>
    <path d="M7 61c12-5 24-4 38 1"/>
  </g>
</svg>
