<svg xmlns="http://www.w3.org/2000/svg" width="64" height="64" viewBox="0 0 64 64">
  <rect width="64" height="64" fill="#763238"/>
  <path d="M0 0h64v64H0z" fill="#8d3b3f"/>
  <g fill="#b1843c" opacity=".58">
    <circle cx="16" cy="16" r="2"/>
    <circle cx="48" cy="16" r="2"/>
    <circle cx="16" cy="48" r="2"/>
    <circle cx="48" cy="48" r="2"/>
    <circle cx="32" cy="32" r="1.8"/>
  </g>
  <g fill="none" stroke="#e0b65e" stroke-linecap="round" stroke-linejoin="round" opacity=".6">
    <path d="M16 8c6 4 6 12 0 16-6-4-6-12 0-16z"/>
    <path d="M48 8c6 4 6 12 0 16-6-4-6-12 0-16z"/>
    <path d="M16 40c6 4 6 12 0 16-6-4-6-12 0-16z"/>
    <path d="M48 40c6 4 6 12 0 16-6-4-6-12 0-16z"/>
  </g>
  <g fill="none" stroke="#2c1418" stroke-linecap="round" opacity=".35">
    <path d="M3 7c10-3 20-2 30 1"/>
    <path d="M32 28c8 3 19 3 30 0"/>
    <path d="M4 61c12-5 25-5 39 0"/>
  </g>
</svg>
