<svg xmlns="http://www.w3.org/2000/svg" width="64" height="64" viewBox="0 0 64 64">
  <rect width="64" height="64" fill="#2d3035"/>
  <path d="M0 0h64v64H0z" fill="#363a40"/>
  <g stroke="#17191d" stroke-width="2" stroke-linecap="round" opacity=".42">
    <path d="M-8 14L14-8M0 32l32-32M0 50l50-50M14 64l50-50M32 72l40-40"/>
  </g>
  <g stroke="#5d636b" stroke-width="1" stroke-linecap="round" opacity=".5">
    <path d="M3 16l15-15M4 33L33 4M10 55l45-45M38 63l25-25"/>
  </g>
  <g fill="#0f1115" opacity=".35">
    <circle cx="10" cy="10" r="1.3"/>
    <circle cx="30" cy="18" r="1"/>
    <circle cx="51" cy="13" r="1.2"/>
    <circle cx="18" cy="44" r="1.1"/>
    <circle cx="43" cy="48" r="1.3"/>
    <circle cx="59" cy="58" r="1"/>
  </g>
  <g fill="none" stroke="#111318" stroke-linecap="round" opacity=".45">
    <path d="M7 5c7 3 14 3 21 0"/>
    <path d="M31 33c9-2 18-2 27 1"/>
    <path d="M5 61c8-4 18-4 28-1"/>
  </g>
</svg>
