<svg xmlns="http://www.w3.org/2000/svg" width="64" height="64" viewBox="0 0 64 64">
  <rect width="64" height="64" fill="#273a55"/>
  <path d="M0 0H64V64H0Z" fill="#2f476a"/>
  <g opacity=".3" fill="#142235">
    <circle cx="8" cy="8" r="1.2"/>
    <circle cx="24" cy="8" r="1"/>
    <circle cx="40" cy="8" r="1.2"/>
    <circle cx="56" cy="8" r="1"/>
    <circle cx="16" cy="24" r="1.1"/>
    <circle cx="32" cy="24" r="1.2"/>
    <circle cx="48" cy="24" r="1.1"/>
    <circle cx="8" cy="40" r="1"/>
    <circle cx="24" cy="40" r="1.2"/>
    <circle cx="40" cy="40" r="1"/>
    <circle cx="56" cy="40" r="1.2"/>
    <circle cx="16" cy="56" r="1.1"/>
    <circle cx="32" cy="56" r="1"/>
    <circle cx="48" cy="56" r="1.1"/>
  </g>
  <g fill="none" stroke="#d6a64a" stroke-linecap="round" stroke-linejoin="round">
    <path d="M8 13l5-5 5 5-5 5z" opacity=".58"/>
    <path d="M40 13l5-5 5 5-5 5z" opacity=".58"/>
    <path d="M24 29l5-5 5 5-5 5z" opacity=".5"/>
    <path d="M56 29l5-5 5 5-5 5z" opacity=".5"/>
    <path d="M8 45l5-5 5 5-5 5z" opacity=".58"/>
    <path d="M40 45l5-5 5 5-5 5z" opacity=".58"/>
  </g>
  <g fill="none" stroke="#111824" stroke-linecap="round" opacity=".36">
    <path d="M2 7c8-3 14-3 22 0"/>
    <path d="M36 26c8 3 16 3 26 0"/>
    <path d="M1 58c11-4 19-3 29 1"/>
    <path d="M35 9c9-2 17-1 27 2"/>
  </g>
</svg>
